HIERARCHY
ROOT Hips
{
	OFFSET 0.00000 0.00000 0.00000
	CHANNELS 6 Xposition Yposition Zposition Zrotation Yrotation Xrotation 
	JOINT LHipJoint
	{
		OFFSET 0 0 0
		CHANNELS 3 Zrotation Yrotation Xrotation
		JOINT LeftHip
		{
			OFFSET 1.55020 -1.87941 0.79896
			CHANNELS 3 Zrotation Yrotation Xrotation
			JOINT LeftKnee
			{
				OFFSET 2.65269 -7.28822 0.00000
				CHANNELS 3 Zrotation Yrotation Xrotation
				JOINT LeftAnkle
				{
					OFFSET 2.61200 -7.17641 0.00000
					CHANNELS 3 Zrotation Yrotation Xrotation
					JOINT LeftToe
					{
						OFFSET 0.09338 -0.25656 1.92461
						CHANNELS 3 Zrotation Yrotation Xrotation
						End Site
						{
							OFFSET 0.00000 -0.00000 0.98480
						}
					}
				}
			}
		}
	}
	JOINT RHipJoint
	{
		OFFSET 0 0 0
		CHANNELS 3 Zrotation Yrotation Xrotation
		JOINT RightHip
		{
			OFFSET -1.56866 -1.87941 0.79895
			CHANNELS 3 Zrotation Yrotation Xrotation
			JOINT RightKnee
			{
				OFFSET -2.60199 -7.14892 0.00000
				CHANNELS 3 Zrotation Yrotation Xrotation
				JOINT RightAnkle
				{
					OFFSET -2.62841 -7.22151 0.00000
					CHANNELS 3 Zrotation Yrotation Xrotation
					JOINT RightToe
					{
						OFFSET -0.19532 -0.53663 1.93132
						CHANNELS 3 Zrotation Yrotation Xrotation
						End Site
						{
							OFFSET -0.00000 -0.00000 1.00896
						}
					}
				}
			}
		}
	}
	JOINT lowerback
	{
		OFFSET 0 0 0
		CHANNELS 3 Zrotation Yrotation Xrotation
		JOINT Chest
		{
			OFFSET 0.06381 2.07806 -0.22112
			CHANNELS 3 Zrotation Yrotation Xrotation
			JOINT Chest2
			{
				OFFSET -0.02881 2.08890 0.01825
				CHANNELS 3 Zrotation Yrotation Xrotation
				JOINT lowerneck
				{
					OFFSET 0 0 0
					CHANNELS 3 Zrotation Yrotation Xrotation
					JOINT Neck
					{
						OFFSET 0.02418 1.74325 -0.02023
						CHANNELS 3 Zrotation Yrotation Xrotation
						JOINT Head
						{
							OFFSET -0.01704 1.71677 0.04090
							CHANNELS 3 Zrotation Yrotation Xrotation
							End Site
							{
								OFFSET -0.00946 1.78238 0.01684
							}
						}
					}
				}
				JOINT LeftCollar
				{
					OFFSET 0 0 0
					CHANNELS 3 Zrotation Yrotation Xrotation
					JOINT LeftShoulder
					{
						OFFSET 3.39783 1.34157 0.16610
CHANNELS 3 Zrotation Xrotation Yrotation
						JOINT LeftElbow
						{
OFFSET 0 -5.152180 0.000000
CHANNELS 3 Zrotation Xrotation Yrotation
							JOINT LeftWrist
							{
OFFSET 0 -3.494590 0.000000
CHANNELS 3 Zrotation Xrotation Yrotation
								JOINT lhand
								{
									OFFSET 0 0 0
CHANNELS 3 Zrotation Xrotation Yrotation
									JOINT LFingers
									{
OFFSET 0 -0.512470 0.000000
CHANNELS 3 Zrotation Xrotation Yrotation
										End Site
										{
OFFSET 0 -0.413160 0.000000
										}
									}
								}
								JOINT LThumb
								{
OFFSET 0 0.000000 0.000000
CHANNELS 3 Zrotation Xrotation Yrotation
									End Site
									{
OFFSET 0 -0.419470 0.419470
									}
								}
							}
						}
					}
				}
				JOINT RightCollar
				{
					OFFSET 0 0 0
					CHANNELS 3 Zrotation Yrotation Xrotation
					JOINT RightShoulder
					{
						OFFSET -3.26224 1.05509 0.01188
CHANNELS 3 Zrotation Xrotation Yrotation
						JOINT RightElbow
						{
OFFSET 0 -5.443440 0.000000
CHANNELS 3 Zrotation Xrotation Yrotation
							JOINT RightWrist
							{
OFFSET 0 -3.584030 0.000000
CHANNELS 3 Zrotation Xrotation Yrotation
								JOINT rhand
								{
									OFFSET 0 0 0
CHANNELS 3 Zrotation Xrotation Yrotation
									JOINT RFingers
									{
OFFSET 0 -0.342490 0.000000
CHANNELS 3 Zrotation Xrotation Yrotation
										End Site
										{
OFFSET 0 -0.276120 0.000000
										}
									}
								}
								JOINT RThumb
								{
OFFSET 0 0.000000 0.000000
CHANNELS 3 Zrotation Xrotation Yrotation
									End Site
									{
OFFSET 0 -0.280340 0.280340
									}
								}
							}
						}
					}
				}
			}
		}
	}
}
MOTION
Frames: 12
Frame Time: 0.008333333333333333
-10.229861 17.349054 1.255276 -12.993806 -75.888175 23.453015 0.000000 0.000000 0.000000 -11.027678 -20.583667 -42.786032 7.986021 16.103845 52.503853 -0.806964 -16.491853 0.594695 0.486674 -4.465256 -12.390735 0.000000 0.000000 0.000000 21.363397 12.835636 -27.710318 -5.638910 -14.066056 43.508823 -1.370264 7.995818 -20.941260 -0.424892 4.183378 -11.593112 7.405212 -0.939834 29.432637 2.378766 0.273606 9.307044 -1.671833 -0.175139 -5.608026 10.485151 10.670515 5.577968 -14.628614 13.973476 -12.246553 -6.497245 7.296617 -2.684481 0.000000 0.000000 0.000000 6.652701 -17.059660 -39.621991 46.637782 -51.537088 23.517025 33.244680 19.241666 -7.558306 0.000000 0.000000 0.000000 -7.125000 0.000000 0.000000 5.572187 38.934972 0.841748 0.000000 0.000000 0.000000 -14.012814 -6.023938 24.147766 -20.669399 -31.431130 -5.880835 -39.816130 46.174939 30.287187 0.000000 0.000000 0.000000 7.125000 0.000000 0.000000 -12.230023 66.849388 6.479292
-10.155756 17.240141 1.224834 -18.540767 -74.352488 28.403470 0.000000 0.000000 0.000000 -8.980204 -20.071191 -43.778247 8.809382 16.669212 55.406705 -0.823528 -17.212472 -0.796433 0.535823 -4.682725 -13.007162 0.000000 0.000000 0.000000 23.559698 12.745838 -28.199285 -5.965764 -14.392169 44.838640 -1.448005 7.152256 -21.535969 -0.501681 4.531062 -12.577215 9.621695 -1.426337 29.262763 2.984573 0.291818 9.217735 -2.256114 -0.169964 -5.559979 10.921092 10.990330 5.952924 -14.909735 14.459543 -12.364400 -6.663727 7.548045 -2.662550 0.000000 0.000000 0.000000 6.818982 -20.083671 -42.005711 49.366803 -52.707433 25.677316 32.852471 20.541019 -7.562248 0.000000 0.000000 0.000000 -7.125000 0.000000 0.000000 5.233338 38.909277 0.789441 0.000000 0.000000 0.000000 -13.492209 -4.288156 22.801908 -19.159509 -29.597482 -5.118742 -38.564119 47.166984 29.846850 0.000000 0.000000 0.000000 7.125000 0.000000 0.000000 -10.408542 65.976444 5.315571
-10.087198 17.147264 1.203497 -22.788103 -73.309806 32.336649 0.000000 0.000000 0.000000 -7.460033 -19.291942 -44.787974 9.653880 17.199161 58.309240 -0.761614 -17.377151 -2.468426 0.621337 -5.039760 -14.022994 0.000000 0.000000 0.000000 25.195216 12.754335 -28.825762 -6.245346 -14.660304 45.955530 -1.514082 6.408729 -22.059280 -0.655617 5.148731 -14.339877 11.306651 -1.778590 29.026180 3.418269 0.327221 9.054434 -2.734668 -0.157248 -5.579060 11.286218 11.325664 6.299198 -15.138440 14.966385 -12.444648 -6.798512 7.809138 -2.629147 0.000000 0.000000 0.000000 7.012368 -22.833282 -44.079355 52.374992 -53.878956 28.090056 32.355197 21.592883 -7.708640 0.000000 0.000000 0.000000 -7.125000 0.000000 0.000000 4.801728 39.040799 0.706979 0.000000 0.000000 0.000000 -12.955245 -2.639930 21.398775 -17.729841 -27.795695 -4.429957 -37.255294 48.555843 29.582475 0.000000 0.000000 0.000000 7.125000 0.000000 0.000000 -8.525488 65.287977 4.201156
-10.024185 17.077144 1.187094 -23.712424 -72.923827 33.167653 0.000000 0.000000 0.000000 -7.188959 -18.371261 -45.546429 10.480170 17.668582 61.078285 -0.629415 -17.064916 -4.319775 0.712286 -5.389159 -15.023042 0.000000 0.000000 0.000000 25.647584 12.728219 -29.513319 -6.483720 -14.881085 46.893069 -1.569819 5.812953 -22.513741 -0.867663 5.937461 -16.603606 11.874986 -1.936250 28.813802 3.579646 0.295444 8.875819 -2.862105 -0.177028 -5.668164 11.600952 11.681702 6.620752 -15.371368 15.496650 -12.509757 -6.922513 8.083825 -2.584779 0.000000 0.000000 0.000000 7.230274 -25.362094 -45.826554 55.598469 -55.007733 30.708200 32.129682 22.188236 -7.690516 0.000000 0.000000 0.000000 -7.125000 0.000000 0.000000 4.604842 39.000992 0.682108 0.000000 0.000000 0.000000 -12.432199 -1.099134 19.922897 -16.412415 -26.073685 -3.827159 -36.210663 50.485882 29.588020 0.000000 0.000000 0.000000 7.125000 0.000000 0.000000 -7.031822 64.985080 3.406860
-9.975153 17.047842 1.178406 -21.764588 -73.296064 31.187497 0.000000 0.000000 0.000000 -8.348590 -17.227164 -45.558208 11.223833 18.037505 63.499810 -0.456990 -16.619278 -6.315539 0.881839 -5.977404 -16.721297 0.000000 0.000000 0.000000 24.901565 12.621981 -29.933410 -6.631555 -15.013237 47.466075 -1.595881 5.639940 -22.722166 -0.991938 6.334950 -17.760808 11.248825 -1.912765 28.805188 3.493802 0.176028 8.764796 -2.567835 -0.237693 -5.828883 11.922609 12.068074 6.937625 -15.821644 16.049335 -12.626301 -7.110546 8.383175 -2.526102 0.000000 0.000000 0.000000 7.424638 -27.686879 -47.148155 59.127132 -56.051114 33.620714 32.009677 21.939317 -7.248706 0.000000 0.000000 0.000000 -7.125000 0.000000 0.000000 4.498825 38.474589 0.724367 0.000000 0.000000 0.000000 -11.951885 0.240799 18.263368 -15.311020 -24.571267 -3.357961 -36.513252 53.367548 29.691755 0.000000 0.000000 0.000000 7.125000 0.000000 0.000000 -7.432772 65.189088 3.637520
-9.928921 17.031337 1.168291 -21.323891 -73.510007 30.792308 0.000000 0.000000 0.000000 -8.893777 -15.971295 -45.527586 11.881758 18.334367 65.607054 -0.315818 -16.214724 -7.782707 1.057708 -6.527697 -18.327333 0.000000 0.000000 0.000000 24.620375 12.824421 -30.286493 -6.716610 -15.088433 47.794170 -1.589867 5.651090 -22.676400 -0.946056 6.190276 -17.338974 10.842473 -1.929429 28.711001 3.563725 0.059029 8.652290 -2.223199 -0.298688 -5.940498 12.343241 12.468946 7.283991 -16.518423 16.616576 -12.768551 -7.384755 8.703231 -2.438479 0.000000 0.000000 0.000000 7.725062 -29.986013 -47.993009 62.729778 -56.961412 36.628358 31.728852 21.604167 -6.992542 0.000000 0.000000 0.000000 -7.125000 0.000000 0.000000 4.255331 38.154265 0.718073 0.000000 0.000000 0.000000 -11.476788 1.448364 16.553692 -14.433388 -23.345560 -3.001085 -36.314103 55.466590 29.514658 0.000000 0.000000 0.000000 7.125000 0.000000 0.000000 -7.197691 64.934309 3.480849
-9.887440 17.032921 1.162228 -21.609170 -73.711428 31.049216 0.000000 0.000000 0.000000 -9.219200 -14.633384 -45.205960 12.453173 18.573011 67.415412 -0.177349 -15.560433 -8.932726 1.320771 -7.247516 -20.464820 0.000000 0.000000 0.000000 24.550267 13.102054 -30.400859 -6.736416 -15.105814 47.870233 -1.561201 5.851770 -22.447038 -0.797856 5.678359 -15.859888 10.511093 -1.976262 28.691739 3.693297 -0.074448 8.583842 -1.847029 -0.369558 -6.033885 12.717348 12.888685 7.647736 -17.218357 17.203245 -12.975619 -7.655501 9.036589 -2.368494 0.000000 0.000000 0.000000 8.158938 -32.303878 -48.457518 66.278020 -57.741248 39.614403 31.557771 21.405694 -6.952449 0.000000 0.000000 0.000000 -7.125000 0.000000 0.000000 4.107318 38.094593 0.699647 0.000000 0.000000 0.000000 -11.025706 2.582262 14.950699 -13.763992 -22.394930 -2.738485 -36.063163 57.082330 29.299769 0.000000 0.000000 0.000000 7.125000 0.000000 0.000000 -6.899475 64.622408 3.284188
-9.851887 17.056841 1.163695 -22.207714 -73.974549 31.469969 0.000000 0.000000 0.000000 -9.530216 -13.240510 -44.444428 12.930094 18.756587 68.907973 -0.030902 -14.524716 -9.839902 1.710675 -8.235167 -23.430914 0.000000 0.000000 0.000000 24.557240 13.321948 -30.181818 -6.684227 -15.060082 47.669460 -1.513134 6.250697 -22.057958 -0.583025 4.888513 -13.590895 10.183065 -2.051540 28.823420 3.831574 -0.239350 8.587592 -1.450824 -0.457337 -6.116622 12.957700 13.330758 8.021816 -17.788141 17.812147 -13.274957 -7.872835 9.379657 -2.343670 0.000000 0.000000 0.000000 8.753362 -34.667679 -48.571008 69.687944 -58.380620 42.505085 31.658035 21.463910 -7.149467 0.000000 0.000000 0.000000 -7.125000 0.000000 0.000000 4.194034 38.331641 0.690184 0.000000 0.000000 0.000000 -10.610558 3.669037 13.559288 -13.312856 -21.743901 -2.568083 -36.007328 58.333843 29.179984 0.000000 0.000000 0.000000 7.125000 0.000000 0.000000 -6.852442 64.473256 3.237881
-9.814118 17.102340 1.177094 -22.052149 -74.118703 31.434998 0.000000 0.000000 0.000000 -9.917471 -12.324938 -43.576931 13.275900 18.878286 69.979036 -0.034362 -14.640598 -9.884076 1.855712 -8.556309 -24.418563 0.000000 0.000000 0.000000 24.355072 13.194654 -30.209574 -6.542650 -14.933967 47.121928 -1.436272 6.583030 -21.456092 -0.482088 4.444568 -12.332167 9.958001 -2.205559 28.515382 3.912118 -0.539584 8.651791 -1.142934 -0.594275 -5.927412 12.964473 13.783906 8.354812 -18.271254 18.400613 -13.697552 -8.036867 9.717438 -2.376579 0.000000 0.000000 0.000000 9.573003 -37.116223 -48.462709 72.681443 -58.822282 45.062369 32.140926 21.342138 -7.206009 0.000000 0.000000 0.000000 -7.125000 0.000000 0.000000 4.612432 38.434786 0.747315 0.000000 0.000000 0.000000 -10.222419 4.691361 12.700626 -13.182471 -21.553954 -2.520007 -36.188072 58.867902 29.186242 0.000000 0.000000 0.000000 7.125000 0.000000 0.000000 -7.101508 64.532817 3.366131
-9.776794 17.161675 1.195583 -21.840350 -74.251836 31.418064 0.000000 0.000000 0.000000 -10.305715 -11.548373 -42.534948 13.511657 18.958722 70.706908 -0.104929 -14.972130 -9.299138 1.686613 -8.161121 -23.215466 0.000000 0.000000 0.000000 24.169904 12.941301 -30.237676 -6.353239 -14.760807 46.380982 -1.355753 6.663935 -20.824231 -0.524654 4.629191 -12.856210 9.806121 -2.403706 28.211150 3.939391 -0.871937 8.684710 -0.926710 -0.746878 -5.775313 13.277920 14.129673 8.420913 -18.878251 18.871619 -13.774829 -8.233018 9.982331 -2.234854 0.000000 0.000000 0.000000 10.646444 -39.469345 -48.154671 75.232326 -59.149103 47.248246 32.714446 21.055812 -7.205773 0.000000 0.000000 0.000000 -7.125000 0.000000 0.000000 5.109450 38.478978 0.823076 0.000000 0.000000 0.000000 -9.815305 5.773282 12.343287 -13.228104 -21.620475 -2.536814 -36.272010 58.668385 29.101575 0.000000 0.000000 0.000000 7.125000 0.000000 0.000000 -7.238103 64.463106 3.419221
-9.740011 17.232788 1.218363 -21.627542 -74.408946 31.477376 0.000000 0.000000 0.000000 -10.706192 -10.834464 -41.379936 13.643028 19.002173 71.111221 -0.189408 -15.179241 -8.428115 1.416941 -7.524093 -21.279614 0.000000 0.000000 0.000000 23.987924 12.650248 -30.279678 -6.130098 -14.551885 45.498961 -1.273858 6.541295 -20.174981 -0.683226 5.256018 -14.647111 9.688617 -2.632846 27.945159 3.918774 -1.220878 8.656068 -0.776723 -0.909113 -5.711199 13.774932 14.406320 8.355351 -19.500803 19.276721 -13.619454 -8.430736 10.202464 -1.990532 0.000000 0.000000 0.000000 11.970140 -41.683271 -47.614383 77.317364 -59.380270 49.039584 33.368601 20.661277 -7.136944 0.000000 0.000000 0.000000 -7.125000 0.000000 0.000000 5.675139 38.448653 0.919897 0.000000 0.000000 0.000000 -9.398042 6.952820 12.446130 -13.426197 -21.907894 -2.610632 -36.361400 57.872312 28.949145 0.000000 0.000000 0.000000 7.125000 0.000000 0.000000 -7.397450 64.319380 3.469842
-9.703936 17.314877 1.245088 -21.473008 -74.630550 31.684698 0.000000 0.000000 0.000000 -11.132468 -10.108618 -40.164425 13.663568 19.008799 71.174242 -0.232257 -14.881216 -7.605602 1.264322 -7.126530 -20.091196 0.000000 0.000000 0.000000 23.794665 12.412005 -30.351828 -5.884345 -14.315041 44.515214 -1.192873 6.242166 -19.519813 -0.942157 6.177700 -17.302093 9.567876 -2.882574 27.759041 3.850305 -1.571690 8.525903 -0.673578 -1.075647 -5.800357 14.345140 14.646698 8.287765 -20.024260 19.663461 -13.324669 -8.597344 10.402718 -1.708778 0.000000 0.000000 0.000000 13.570329 -43.694201 -46.778986 78.855637 -59.524939 50.364130 34.102325 20.206141 -6.978582 0.000000 0.000000 0.000000 -7.125000 0.000000 0.000000 6.307042 38.318120 1.042921 0.000000 0.000000 0.000000 -8.978908 8.282593 13.020167 -13.769721 -22.404479 -2.739840 -36.566881 56.555423 28.745725 0.000000 0.000000 0.000000 7.125000 0.000000 0.000000 -7.727722 64.152183 3.595884
